<?xml version="1.0" encoding="utf-8"?>
<!-- Generator: Adobe Illustrator 25.0.0, SVG Export Plug-In . SVG Version: 6.00 Build 0)  -->
<svg version="1.1" xmlns="http://www.w3.org/2000/svg" xmlns:xlink="http://www.w3.org/1999/xlink" x="0px" y="0px"
	 viewBox="0 0 300 335" style="enable-background:new 0 0 300 335;" xml:space="preserve">
<style type="text/css">
	.st0{display:none;}
	.st1{display:inline;fill:#FAF7F0;}
	.st2{font-family:'Economica-Regular';}
	.st3{font-size:212.5279px;}
	.st4{fill:#131313;}
	.st5{fill:#FAF7F0;}
</style>
<g id="Découpe" class="st0">
	<rect x="-97.6" y="130" class="st1" width="464.8" height="40"/>
</g>
<g id="Copie_de_typo" class="st0">
	<text transform="matrix(1 0 0 1 144.0094 229.2896)" class="st1 st2 st3">V</text>
	<text transform="matrix(1 0 0 1 125.1212 229.2886)" class="st1 st2 st3">L</text>
	<text transform="matrix(1 0 0 1 77.0495 229.2896)" class="st1 st2 st3">S</text>
</g>
<g id="Fond">
	<rect class="st4" width="300" height="335"/>
</g>
<g id="Contour">
	<g>
		<polygon class="st5" points="290,290 10,290 10,170 0,170 0,300 300,300 300,170 290,170 		"/>
		<polygon class="st5" points="10,10 290,10 290,130 300,130 300,0 0,0 0,130 10,130 		"/>
	</g>
</g>
<g id="BaseLine">
	<g>
		<g>
			<path class="st5" d="M-0.6,326.7v-14h5.5c1.2,0,2.3,0.2,3.1,0.6c0.9,0.4,1.5,0.9,2,1.7c0.5,0.7,0.7,1.6,0.7,2.6
				c0,1-0.2,1.9-0.7,2.6c-0.5,0.7-1.1,1.3-2,1.7c-0.9,0.4-1.9,0.6-3.1,0.6H0.5l0.9-0.9v5.2H-0.6z M1.4,321.7l-0.9-1h4.3
				c1.3,0,2.2-0.3,2.9-0.8c0.7-0.5,1-1.3,1-2.3s-0.3-1.8-1-2.3c-0.7-0.5-1.6-0.8-2.9-0.8H0.5l0.9-1V321.7z"/>
			<path class="st5" d="M17.5,326.7v-14H23c1.8,0,3.2,0.4,4.3,1.3s1.6,2.1,1.6,3.6c0,1-0.2,1.9-0.7,2.6c-0.5,0.7-1.1,1.3-2,1.7
				c-0.9,0.4-1.9,0.6-3.1,0.6h-4.4l0.9-0.9v5.2H17.5z M19.5,321.7l-0.9-1h4.3c1.3,0,2.2-0.3,2.9-0.8c0.7-0.6,1-1.3,1-2.3
				s-0.3-1.8-1-2.3c-0.7-0.5-1.6-0.8-2.9-0.8h-4.3l0.9-1V321.7z M26.9,326.7l-3.6-5.1h2.1l3.6,5.1H26.9z"/>
			<path class="st5" d="M35.8,326.7v-14h2v14H35.8z"/>
			<path class="st5" d="M45.7,326.7v-14h1.6l9.3,11.5h-0.9v-11.5h2v14h-1.6l-9.3-11.5h0.9v11.5H45.7z"/>
			<path class="st5" d="M68.4,326.7v-12.3h-4.8v-1.7h11.6v1.7h-4.8v12.3H68.4z"/>
			<path class="st5" d="M90.1,330.6v-18.7h1.8v18.7H90.1z"/>
			<path class="st5" d="M108.9,326.7v-14h5.9c1.5,0,2.8,0.3,4,0.9c1.1,0.6,2,1.4,2.7,2.5c0.6,1.1,1,2.3,1,3.7s-0.3,2.6-1,3.7
				s-1.5,1.9-2.7,2.5c-1.1,0.6-2.5,0.9-4,0.9H108.9z M110.9,325h3.8c1.2,0,2.2-0.2,3-0.7c0.8-0.4,1.5-1.1,2-1.8s0.7-1.7,0.7-2.8
				c0-1.1-0.2-2-0.7-2.8s-1.1-1.4-2-1.8c-0.8-0.4-1.9-0.7-3-0.7h-3.8V325z"/>
			<path class="st5" d="M129.1,326.7v-14h2v14H129.1z"/>
			<path class="st5" d="M145.3,326.9c-1.1,0-2.1-0.2-3-0.5c-0.9-0.4-1.7-0.9-2.4-1.5c-0.7-0.6-1.2-1.4-1.6-2.3
				c-0.4-0.9-0.6-1.8-0.6-2.9s0.2-2,0.6-2.9c0.4-0.9,0.9-1.6,1.6-2.3s1.5-1.1,2.4-1.5s1.9-0.5,3-0.5c1.1,0,2.1,0.2,3,0.5
				s1.7,0.9,2.3,1.6l-1.2,1.2c-0.6-0.6-1.2-1-1.9-1.2s-1.4-0.4-2.2-0.4c-0.8,0-1.5,0.1-2.2,0.4c-0.7,0.3-1.3,0.6-1.8,1.1
				c-0.5,0.5-0.9,1.1-1.2,1.7c-0.3,0.7-0.4,1.4-0.4,2.2c0,0.8,0.1,1.5,0.4,2.1c0.3,0.7,0.7,1.2,1.2,1.7c0.5,0.5,1.1,0.9,1.8,1.1
				c0.7,0.3,1.4,0.4,2.2,0.4c0.7,0,1.5-0.1,2.1-0.3c0.7-0.2,1.3-0.6,1.9-1.2l1.1,1.5c-0.7,0.6-1.5,1-2.4,1.3
				S146.3,326.9,145.3,326.9z M150.6,325.1l-1.9-0.3v-5.2h1.9V325.1z"/>
			<path class="st5" d="M158.2,326.7v-14h2v14H158.2z"/>
			<path class="st5" d="M170.8,326.7v-12.3H166v-1.7h11.6v1.7h-4.8v12.3H170.8z"/>
			<path class="st5" d="M181.4,326.7l6.3-14h2l6.4,14H194l-5.7-12.9h0.8l-5.7,12.9H181.4z M184.1,323.2l0.5-1.6h7.9l0.6,1.6H184.1z"
				/>
			<path class="st5" d="M201.8,326.7v-14h2V325h7.6v1.7H201.8z"/>
			<path class="st5" d="M226.5,330.6v-18.7h1.8v18.7H226.5z"/>
			<path class="st5" d="M248.5,326.7l-4.7-14h2.1l4.3,12.9h-1l4.5-12.9h1.8l4.4,12.9h-1l4.4-12.9h1.9l-4.7,14h-2.1l-4.1-12h0.5
				l-4.1,12H248.5z"/>
			<path class="st5" d="M271.5,326.7v-14h9.9v1.7h-7.9V325h8.2v1.7H271.5z M273.3,320.5v-1.7h7.2v1.7H273.3z"/>
			<path class="st5" d="M288.6,326.7v-14h6.3c1.6,0,2.9,0.3,3.7,1c0.9,0.6,1.3,1.5,1.3,2.7c0,0.8-0.2,1.4-0.5,1.9
				c-0.3,0.5-0.8,0.9-1.4,1.2c-0.6,0.3-1.2,0.4-1.9,0.4l0.4-0.6c0.8,0,1.5,0.1,2.1,0.4c0.6,0.3,1.1,0.7,1.5,1.2
				c0.4,0.5,0.5,1.2,0.5,2c0,1.2-0.4,2.1-1.3,2.8s-2.2,1-4,1H288.6z M290.6,325.1h4.6c1.1,0,2-0.2,2.5-0.6c0.6-0.4,0.9-1,0.9-1.8
				c0-0.8-0.3-1.4-0.9-1.8c-0.6-0.4-1.4-0.6-2.5-0.6h-4.8v-1.6h4.3c1,0,1.8-0.2,2.4-0.6c0.6-0.4,0.8-0.9,0.8-1.7
				c0-0.7-0.3-1.3-0.8-1.7c-0.6-0.4-1.3-0.6-2.4-0.6h-4.1V325.1z"/>
		</g>
	</g>
</g>
<g id="FrontDesign">
	<g>
		<g>
			<path class="st5" d="M-0.4,158.8v-18.2h12.8v2.3H2.2v15.9H-0.4z M1.9,151.4v-2.2h9.4v2.2H1.9z"/>
			<path class="st5" d="M25.1,158.8v-18.2h7.1c2.4,0,4.2,0.6,5.6,1.7c1.4,1.1,2,2.7,2,4.7c0,1.3-0.3,2.4-0.9,3.4
				c-0.6,0.9-1.5,1.7-2.6,2.2c-1.1,0.5-2.5,0.8-4.1,0.8h-5.7l1.2-1.2v6.7H25.1z M27.7,152.3l-1.2-1.3h5.6c1.7,0,2.9-0.4,3.8-1.1
				c0.9-0.7,1.3-1.7,1.3-3c0-1.3-0.4-2.3-1.3-3c-0.9-0.7-2.1-1.1-3.8-1.1h-5.6l1.2-1.3V152.3z M37.2,158.8l-4.6-6.6h2.8l4.7,6.6
				H37.2z"/>
			<path class="st5" d="M61.1,159c-1.4,0-2.7-0.2-3.9-0.7c-1.2-0.5-2.2-1.1-3.1-2s-1.5-1.8-2-3c-0.5-1.1-0.7-2.4-0.7-3.7
				s0.2-2.6,0.7-3.7c0.5-1.1,1.2-2.1,2-3s1.9-1.5,3.1-2s2.5-0.7,3.9-0.7c1.4,0,2.7,0.2,3.8,0.7s2.2,1.1,3.1,2s1.5,1.8,2,3
				c0.5,1.1,0.7,2.4,0.7,3.7c0,1.4-0.2,2.6-0.7,3.7c-0.5,1.1-1.1,2.1-2,3s-1.9,1.5-3.1,1.9C63.8,158.8,62.5,159,61.1,159z
				 M61.1,156.7c1,0,2-0.2,2.8-0.5c0.9-0.3,1.6-0.8,2.2-1.5c0.6-0.6,1.1-1.4,1.5-2.2c0.4-0.8,0.5-1.8,0.5-2.8c0-1-0.2-1.9-0.5-2.8
				c-0.4-0.8-0.8-1.6-1.5-2.2c-0.6-0.6-1.4-1.1-2.2-1.5c-0.9-0.3-1.8-0.5-2.8-0.5c-1,0-1.9,0.2-2.8,0.5s-1.6,0.8-2.2,1.5
				c-0.6,0.6-1.1,1.4-1.5,2.2c-0.4,0.8-0.5,1.8-0.5,2.8c0,1,0.2,1.9,0.5,2.8c0.4,0.8,0.9,1.6,1.5,2.2c0.6,0.6,1.4,1.1,2.2,1.5
				S60.1,156.7,61.1,156.7z"/>
			<path class="st5" d="M83.7,158.8v-18.2h2.1l12,15h-1.1v-15h2.6v18.2h-2.1l-12-15h1.1v15H83.7z"/>
			<path class="st5" d="M117.4,158.8v-15.9h-6.2v-2.3h15.1v2.3h-6.2v15.9H117.4z"/>
			<path class="st5" d="M136.7,152.7v-2.2h7v2.2H136.7z"/>
			<path class="st5" d="M156.9,158.8v-18.2h7.7c1.9,0,3.7,0.4,5.1,1.1c1.5,0.8,2.6,1.8,3.5,3.2c0.8,1.4,1.2,3,1.2,4.8
				s-0.4,3.4-1.2,4.8s-2,2.4-3.5,3.2c-1.5,0.8-3.2,1.1-5.1,1.1H156.9z M159.5,156.5h4.9c1.5,0,2.8-0.3,3.9-0.9s2-1.4,2.6-2.4
				c0.6-1,0.9-2.2,0.9-3.6c0-1.4-0.3-2.6-0.9-3.6c-0.6-1-1.5-1.8-2.6-2.4s-2.4-0.9-3.9-0.9h-4.9V156.5z"/>
			<path class="st5" d="M187.3,158.8v-18.2h12.8v2.3h-10.2v13.7h10.6v2.3H187.3z M189.6,150.7v-2.2h9.4v2.2H189.6z"/>
			<path class="st5" d="M218.9,159c-1.4,0-2.7-0.2-4-0.6s-2.3-1-3-1.7l1-2c0.7,0.6,1.6,1.1,2.7,1.5c1.1,0.4,2.2,0.6,3.4,0.6
				c1.1,0,1.9-0.1,2.6-0.4c0.7-0.2,1.1-0.6,1.5-1c0.3-0.4,0.5-0.9,0.5-1.4c0-0.6-0.2-1.1-0.6-1.5c-0.4-0.4-0.9-0.7-1.6-0.9
				c-0.7-0.2-1.4-0.4-2.1-0.6c-0.8-0.2-1.6-0.4-2.4-0.6c-0.8-0.2-1.5-0.5-2.2-0.9c-0.7-0.4-1.2-0.9-1.6-1.5s-0.6-1.4-0.6-2.4
				c0-0.9,0.2-1.8,0.7-2.6s1.3-1.4,2.3-1.9c1-0.5,2.3-0.7,3.9-0.7c1.1,0,2.1,0.1,3.1,0.4s1.9,0.7,2.7,1.2l-0.9,2.1
				c-0.8-0.5-1.6-0.9-2.5-1.1c-0.9-0.2-1.7-0.4-2.5-0.4c-1,0-1.9,0.1-2.5,0.4c-0.7,0.3-1.1,0.6-1.4,1c-0.3,0.4-0.5,0.9-0.5,1.5
				c0,0.6,0.2,1.2,0.6,1.5c0.4,0.4,0.9,0.7,1.6,0.9c0.6,0.2,1.4,0.4,2.1,0.6c0.8,0.2,1.6,0.4,2.4,0.6c0.8,0.2,1.5,0.5,2.2,0.9
				c0.6,0.4,1.2,0.8,1.6,1.5s0.6,1.4,0.6,2.3c0,0.9-0.3,1.8-0.8,2.6c-0.5,0.8-1.3,1.4-2.3,1.9C221.9,158.8,220.5,159,218.9,159z"/>
			<path class="st5" d="M238.7,158.8v-18.2h2.6v18.2H238.7z"/>
			<path class="st5" d="M263.9,159c-1.4,0-2.7-0.2-3.9-0.7c-1.2-0.5-2.2-1.1-3.1-1.9c-0.9-0.8-1.5-1.8-2-3s-0.7-2.4-0.7-3.7
				c0-1.4,0.2-2.6,0.7-3.7c0.5-1.1,1.2-2.1,2-3s1.9-1.5,3.1-2s2.5-0.7,3.9-0.7c1.4,0,2.8,0.2,4,0.7c1.2,0.5,2.2,1.2,3,2.1l-1.6,1.6
				c-0.7-0.7-1.6-1.3-2.4-1.6c-0.9-0.3-1.8-0.5-2.8-0.5c-1,0-2,0.2-2.9,0.5c-0.9,0.3-1.7,0.8-2.3,1.5s-1.2,1.4-1.5,2.2
				c-0.4,0.9-0.5,1.8-0.5,2.8c0,1,0.2,1.9,0.5,2.8c0.4,0.9,0.9,1.6,1.5,2.2s1.4,1.1,2.3,1.5c0.9,0.3,1.8,0.5,2.9,0.5
				c1,0,1.9-0.2,2.8-0.5c0.9-0.3,1.7-0.8,2.5-1.5l1.5,2c-0.9,0.8-2,1.3-3.2,1.7C266.5,158.8,265.2,159,263.9,159z M270.8,156.7
				l-2.5-0.3v-6.8h2.5V156.7z"/>
			<path class="st5" d="M284.7,158.8v-18.2h2.1l12,15h-1.1v-15h2.6v18.2h-2.1l-12-15h1.1v15H284.7z"/>
		</g>
	</g>
</g>
<g id="Typo">
	<g id="SLV">
		<g>
			<path class="st5" d="M160.4,128.5l-13.1-61.6v61.6h-16.8V48.8l-2.8,5c-0.8,1.4-1.8,2.1-3.2,2.3c-0.7,0.1-1.6,0.1-2.8,0.1
				c-1.2,0-2.5,0-4.1-0.1L101,54.3h-0.1c-15.1,0-24.2,3.3-28,10.1c-2.1,3.3-3.4,6.6-3.9,9.8c-0.5,3-0.8,7.4-0.8,13
				c0,5.8,1.9,11.7,5.8,17.6c3.8,5.8,8.5,11.1,14.2,15.9c2.9,2.4,6,5.1,9.3,7.9H71.6c-4.6-4.9-8.7-10.1-12.1-15.7
				c-4.9-7.9-7.4-15.3-7.4-22.1c0-7.2,0-11.9,0.1-14.3c0.1-2.4,0.4-5.9,0.9-10.4c0.5-4.2,1.2-7.2,2.3-8.9c1.2-1.8,2.9-4.1,5.1-6.9
				c2.1-2.5,4.8-4.3,8.1-5.2c9.6-2.7,19.8-4.1,30.3-4.1l31.6,6v-2.4h14.6c9.5,0,12,1,12.6,1.5c0.6,0.4,2.1,2.4,3.9,11.1l14.1,71.5
				H160.4z"/>
			<path class="st4" d="M98.8,42.4l29.7,5.6l0.7,0.1l-2.8,5c-0.7,1.2-1.4,1.5-2,1.6c-0.7,0.1-1.5,0.1-2.6,0.1c-1.1,0-2.4,0-3.9-0.1
				l-16.7-1.8l-0.2,0h-0.2c-15.6,0-25.2,3.5-29.2,10.8c-2.2,3.5-3.6,7-4.1,10.3c-0.5,3.2-0.8,7.5-0.8,13.2c0,6.1,2,12.2,6,18.4
				c3.8,5.9,8.7,11.4,14.5,16.2c2,1.7,4,3.4,6.2,5.2H72.3c-4.3-4.6-8.2-9.7-11.5-15c-4.8-7.7-7.2-14.8-7.2-21.3
				c0-7.2,0-11.8,0.1-14.3c0.1-2.4,0.4-5.9,0.9-10.3c0.6-5,1.4-7.3,2.1-8.3c1.1-1.8,2.8-4,5-6.7c1.9-2.3,4.3-3.9,7.3-4.7
				C78.5,43.8,88.5,42.4,98.8,42.4 M145.2,46c9.7,0,11.5,1.1,11.7,1.2c0.2,0.1,1.6,1.6,3.4,10.2L174,127h-12.3l-9.9-46.4l-5.9-27.9
				v28.5V127h-13.8V54.6v-5.9V46h8.6H145.2 M99.1,39.4c-10.8,0-21.1,1.4-30.8,4.2c-3.6,1-6.5,2.9-8.8,5.7c-2.3,2.8-4,5.1-5.2,7
				c-1.2,1.9-2,5.1-2.5,9.6c-0.5,4.5-0.8,8-0.9,10.5c-0.1,2.5-0.1,7.3-0.1,14.4c0,7.1,2.5,14.7,7.6,22.9c3.7,5.9,7.9,11.3,12.7,16.4
				h30.6c-4.3-3.7-8.4-7.2-12.3-10.5c-5.6-4.7-10.2-9.9-13.9-15.6c-3.7-5.7-5.5-11.3-5.5-16.8c0-5.5,0.2-9.7,0.7-12.7
				c0.5-3,1.7-6.1,3.7-9.3c3.4-6.2,12.3-9.3,26.6-9.3l16.8,1.8c1.6,0.1,3,0.2,4.2,0.2c1.2,0,2.2-0.1,3-0.2c1.8-0.3,3.3-1.3,4.2-3.1
				V130h19.8V81.2l10.4,48.8h18.4l-14.5-73.3c-1.4-6.8-2.9-10.8-4.5-12c-1.6-1.2-6.1-1.8-13.5-1.8h-4.5h-9.2h-2.4V45L99.1,39.4
				L99.1,39.4z"/>
		</g>
		<g>
			<path class="st5" d="M217.8,128.5l15.4-84h3.2c6.8,0,9.5,0.3,10.6,0.6c0.5,0.1,1.4,0.3,1.4,2.4c0,6-5.2,33.3-15.5,81H217.8z"/>
			<path class="st4" d="M236.5,46c7,0,9.4,0.3,10.2,0.5c0,0,0.1,0,0.1,0c0,0.1,0.1,0.4,0.1,0.9c0,4-2.7,21.2-15.2,79.5h-12.2
				l14.9-81H236.5 M236.5,43H232l-16,87h18.2C244.7,81.2,250,53.7,250,47.5c0-2.2-0.9-3.5-2.5-3.9C245.8,43.2,242.1,43,236.5,43
				L236.5,43z"/>
		</g>
		<g>
			<path class="st5" d="M51.5,253.3v-13.9l42.2,2.9h0.1c14.1,0,23.2-3.3,27.3-9.7c1.5-2.5,2.5-4.4,3.3-5.9c0.9-1.7,1.5-4.4,1.8-8.2
				c0.3-3.4,0.5-6.2,0.6-8c0.1-1.8,0.1-4.8,0-9.3c-0.1-4.2-0.1-7.3-0.1-8.9c0-6-3.1-13-9.4-20.9h30.1v62.4l-1.5,9.1h38.9l-15.2-71.5
				h14.7l10,50.5h6.4l9.3-50.5h13.7c-5.5,24.8-11.9,53.6-19.2,85.5h-73.9v-9.7l-2.4,1.9c-8.1,6.4-19.7,9.8-34.7,9.9L51.5,253.3z"/>
			<path class="st4" d="M221.8,173c-5.3,24-11.5,51.8-18.5,82.5h-16.8h-54.4v-5.1v-6.2l-4.9,3.9c-7.8,6.2-19.1,9.4-33.6,9.6L53,252
				v-10.9l40.5,2.8l0.1,0h0.1c14.8,0,24.2-3.4,28.6-10.4l0,0l0,0c1.4-2.5,2.5-4.4,3.3-5.9c1-1.9,1.7-4.8,2-8.8
				c0.3-3.4,0.5-6.2,0.6-8c0.1-1.8,0.1-4.9,0-9.4c-0.1-5.2-0.1-7.7-0.1-8.9c0-5.8-2.6-12.2-7.8-19.4h25.5v60.7l-1.2,7.2l-0.6,3.5
				h3.5h35.3h3.7l-0.8-3.6L171.4,173h11.7l9.5,48.1l0.5,2.4h2.5h3.9h2.5l0.5-2.5l8.8-48H221.8 M225.5,170h-16.8l-9.3,50.5h-3.9
				l-10-50.5h-17.8l15.2,71.5h-35.3l1.2-7.5v-64h-34.8c7.3,8.6,11,16,11,22.4c0,1.6,0,4.6,0.1,9c0.1,4.4,0.1,7.4,0,9.1
				c-0.1,1.7-0.3,4.3-0.6,7.9c-0.3,3.6-0.9,6.1-1.6,7.6c-0.8,1.5-1.9,3.4-3.3,5.8c-3.8,6-12.5,9-26,9l-43.7-3v16.8l43.4,6
				c15.4-0.1,27.3-3.6,35.7-10.2v8.1h57.4h17.1h2.1C213.3,225.1,219.9,195.6,225.5,170L225.5,170z"/>
		</g>
	</g>
</g>
</svg>
